ISO-10303-21;
HEADER;
FILE_DESCRIPTION(('ViewDefinition [CoordinationView]'),'2;1');
FILE_NAME('','2026-09-14T15:50:37',(''),(''),'IfcOpenShell 0.8.5-1c5b825','IfcOpenShell 0.8.5-1c5b825','');
FILE_SCHEMA(('IFC4'));
ENDSEC;
DATA;
#1=IFCCARTESIANPOINT((0.,0.,0.));
#2=IFCAXIS2PLACEMENT3D(#1,$,$);
#3=IFCDIRECTION((0.,1.));
#4=IFCGEOMETRICREPRESENTATIONCONTEXT('Model','Model',3,1.0000000000000001E-05,#2,#3);
#5=IFCSIUNIT(*,.LENGTHUNIT.,$,.METRE.);
#6=IFCUNITASSIGNMENT((#5));
#7=IFCPROJECT('1YSGioDR59IuvUSDcKEeo8',$,'\X2\68374F8B987976EE\X0\',$,$,$,$,(#4),#6);
#8=IFCCARTESIANPOINT((0.,0.,0.));
#9=IFCAXIS2PLACEMENT3D(#8,$,$);
#10=IFCLOCALPLACEMENT($,#9);
#11=IFCSITE('2NwcwFQkP40erwfpZgs_ij',$,'\X2\68374F8B573A5730\X0\',$,$,#10,$,$,$,$,$,$,$,$);
#12=IFCCARTESIANPOINT((0.,0.,0.));
#13=IFCAXIS2PLACEMENT3D(#12,$,$);
#14=IFCLOCALPLACEMENT($,#13);
#15=IFCBUILDING('2cdj4eHgT0mPuQCX6PQskj',$,'\X2\68374F8B697C\X0\',$,$,#14,$,$,$,$,$,$);
#16=IFCCARTESIANPOINT((0.,0.,0.));
#17=IFCAXIS2PLACEMENT3D(#16,$,$);
#18=IFCLOCALPLACEMENT($,#17);
#19=IFCBUILDINGSTOREY('0kdRR6AzjBNg9XMxS_wJq1',$,'1F',$,$,#18,$,$,$,$);
#20=IFCRELAGGREGATES('1TOxN2LETArBYCe0B96at1',$,$,$,#7,(#11));
#21=IFCRELAGGREGATES('3OKOk1_kr6FwQFY_FFE3vO',$,$,$,#11,(#15));
#22=IFCRELAGGREGATES('3R1BPcyir5BwSmzeUz2rug',$,$,$,#15,(#19));
#23=IFCCARTESIANPOINT((5.,0.10000000000000001));
#24=IFCAXIS2PLACEMENT2D(#23,$);
#25=IFCRECTANGLEPROFILEDEF(.AREA.,$,#24,10.,0.20000000000000001);
#26=IFCCARTESIANPOINT((0.,-0.10000000000000001,0.));
#27=IFCAXIS2PLACEMENT3D(#26,$,$);
#28=IFCDIRECTION((0.,0.,1.));
#29=IFCEXTRUDEDAREASOLID(#25,#27,#28,3.);
#30=IFCSHAPEREPRESENTATION(#4,'Body','SweptSolid',(#29));
#31=IFCPRODUCTDEFINITIONSHAPE($,$,(#30));
#32=IFCCARTESIANPOINT((0.,0.,0.));
#33=IFCAXIS2PLACEMENT3D(#32,$,$);
#34=IFCLOCALPLACEMENT($,#33);
#35=IFCWALL('3QQt8RfTD8_xaISaM5I$G_',$,'W1-\X2\535759165899\X0\',$,$,#34,#31,$,$);
#36=IFCCARTESIANPOINT((5.,0.10000000000000001));
#37=IFCAXIS2PLACEMENT2D(#36,$);
#38=IFCRECTANGLEPROFILEDEF(.AREA.,$,#37,10.,0.20000000000000001);
#39=IFCCARTESIANPOINT((0.,7.9000000000000004,0.));
#40=IFCAXIS2PLACEMENT3D(#39,$,$);
#41=IFCDIRECTION((0.,0.,1.));
#42=IFCEXTRUDEDAREASOLID(#38,#40,#41,3.);
#43=IFCSHAPEREPRESENTATION(#4,'Body','SweptSolid',(#42));
#44=IFCPRODUCTDEFINITIONSHAPE($,$,(#43));
#45=IFCCARTESIANPOINT((0.,0.,0.));
#46=IFCAXIS2PLACEMENT3D(#45,$,$);
#47=IFCLOCALPLACEMENT($,#46);
#48=IFCWALL('2zz$U0y7X6o9FVoyhOA73x',$,'W2-\X2\531759165899\X0\',$,$,#47,#44,$,$);
#49=IFCCARTESIANPOINT((0.10000000000000001,4.));
#50=IFCAXIS2PLACEMENT2D(#49,$);
#51=IFCRECTANGLEPROFILEDEF(.AREA.,$,#50,0.20000000000000001,8.);
#52=IFCCARTESIANPOINT((-0.10000000000000001,0.,0.));
#53=IFCAXIS2PLACEMENT3D(#52,$,$);
#54=IFCDIRECTION((0.,0.,1.));
#55=IFCEXTRUDEDAREASOLID(#51,#53,#54,3.);
#56=IFCSHAPEREPRESENTATION(#4,'Body','SweptSolid',(#55));
#57=IFCPRODUCTDEFINITIONSHAPE($,$,(#56));
#58=IFCCARTESIANPOINT((0.,0.,0.));
#59=IFCAXIS2PLACEMENT3D(#58,$,$);
#60=IFCLOCALPLACEMENT($,#59);
#61=IFCWALL('1Is2kHl7j9re9web72JJy1',$,'W3-\X2\897F59165899\X0\',$,$,#60,#57,$,$);
#62=IFCCARTESIANPOINT((0.10000000000000001,4.));
#63=IFCAXIS2PLACEMENT2D(#62,$);
#64=IFCRECTANGLEPROFILEDEF(.AREA.,$,#63,0.20000000000000001,8.);
#65=IFCCARTESIANPOINT((9.9000000000000004,0.,0.));
#66=IFCAXIS2PLACEMENT3D(#65,$,$);
#67=IFCDIRECTION((0.,0.,1.));
#68=IFCEXTRUDEDAREASOLID(#64,#66,#67,3.);
#69=IFCSHAPEREPRESENTATION(#4,'Body','SweptSolid',(#68));
#70=IFCPRODUCTDEFINITIONSHAPE($,$,(#69));
#71=IFCCARTESIANPOINT((0.,0.,0.));
#72=IFCAXIS2PLACEMENT3D(#71,$,$);
#73=IFCLOCALPLACEMENT($,#72);
#74=IFCWALL('1ceyiubFP988npQ0STfn0j',$,'W4-\X2\4E1C59165899\X0\',$,$,#73,#70,$,$);
#75=IFCCARTESIANPOINT((0.10000000000000001,4.));
#76=IFCAXIS2PLACEMENT2D(#75,$);
#77=IFCRECTANGLEPROFILEDEF(.AREA.,$,#76,0.20000000000000001,8.);
#78=IFCCARTESIANPOINT((4.9000000000000004,0.,0.));
#79=IFCAXIS2PLACEMENT3D(#78,$,$);
#80=IFCDIRECTION((0.,0.,1.));
#81=IFCEXTRUDEDAREASOLID(#77,#79,#80,3.);
#82=IFCSHAPEREPRESENTATION(#4,'Body','SweptSolid',(#81));
#83=IFCPRODUCTDEFINITIONSHAPE($,$,(#82));
#84=IFCCARTESIANPOINT((0.,0.,0.));
#85=IFCAXIS2PLACEMENT3D(#84,$,$);
#86=IFCLOCALPLACEMENT($,#85);
#87=IFCWALL('2zc9m1hB1AgB7erwmrAdlI',$,'W5-\X2\96945899\X0\',$,$,#86,#83,$,$);
#88=IFCCARTESIANPOINT((1.,0.10000000000000001));
#89=IFCAXIS2PLACEMENT2D(#88,$);
#90=IFCRECTANGLEPROFILEDEF(.AREA.,$,#89,2.,0.20000000000000001);
#91=IFCCARTESIANPOINT((2.,3.8999999999999999,0.));
#92=IFCAXIS2PLACEMENT3D(#91,$,$);
#93=IFCDIRECTION((0.,0.,1.));
#94=IFCEXTRUDEDAREASOLID(#90,#92,#93,3.);
#95=IFCSHAPEREPRESENTATION(#4,'Body','SweptSolid',(#94));
#96=IFCPRODUCTDEFINITIONSHAPE($,$,(#95));
#97=IFCCARTESIANPOINT((0.,0.,0.));
#98=IFCAXIS2PLACEMENT3D(#97,$,$);
#99=IFCLOCALPLACEMENT($,#98);
#100=IFCWALL('2s3HK5jVP7U9znT8fK3TNU',$,'W6-\X2\81EA75315899579B\X0\',$,$,#99,#96,$,$);
#101=IFCCARTESIANPOINT((0.10000000000000001,4.));
#102=IFCAXIS2PLACEMENT2D(#101,$);
#103=IFCRECTANGLEPROFILEDEF(.AREA.,$,#102,0.20000000000000001,8.);
#104=IFCCARTESIANPOINT((-0.080000000000000002,0.,0.));
#105=IFCAXIS2PLACEMENT3D(#104,$,$);
#106=IFCDIRECTION((0.,0.,1.));
#107=IFCEXTRUDEDAREASOLID(#103,#105,#106,3.);
#108=IFCSHAPEREPRESENTATION(#4,'Body','SweptSolid',(#107));
#109=IFCPRODUCTDEFINITIONSHAPE($,$,(#108));
#110=IFCCARTESIANPOINT((0.,0.,0.));
#111=IFCAXIS2PLACEMENT3D(#110,$,$);
#112=IFCLOCALPLACEMENT($,#111);
#113=IFCWALL('1yVC0Nd0jCdfPjDB$m2yAD',$,'W3b-\X2\91CD590D897F59165899\X0\',$,$,#112,#109,$,$);
#114=IFCCARTESIANPOINT((0.10000000000000001,1.5));
#115=IFCAXIS2PLACEMENT2D(#114,$);
#116=IFCRECTANGLEPROFILEDEF(.AREA.,$,#115,0.20000000000000001,3.);
#117=IFCCARTESIANPOINT((0.90000000000000002,-6.,0.));
#118=IFCAXIS2PLACEMENT3D(#117,$,$);
#119=IFCDIRECTION((0.,0.,1.));
#120=IFCEXTRUDEDAREASOLID(#116,#118,#119,3.);
#121=IFCSHAPEREPRESENTATION(#4,'Body','SweptSolid',(#120));
#122=IFCPRODUCTDEFINITIONSHAPE($,$,(#121));
#123=IFCCARTESIANPOINT((0.,0.,0.));
#124=IFCAXIS2PLACEMENT3D(#123,$,$);
#125=IFCLOCALPLACEMENT($,#124);
#126=IFCWALL('0v2C4EG4f7kPweU$4xfuvt',$,'W8',$,$,#125,#122,$,$);
#127=IFCCARTESIANPOINT((0.10000000000000001,1.5));
#128=IFCAXIS2PLACEMENT2D(#127,$);
#129=IFCRECTANGLEPROFILEDEF(.AREA.,$,#128,0.20000000000000001,3.);
#130=IFCCARTESIANPOINT((3.8999999999999999,-6.,0.));
#131=IFCAXIS2PLACEMENT3D(#130,$,$);
#132=IFCDIRECTION((0.,0.,1.));
#133=IFCEXTRUDEDAREASOLID(#129,#131,#132,3.);
#134=IFCSHAPEREPRESENTATION(#4,'Body','SweptSolid',(#133));
#135=IFCPRODUCTDEFINITIONSHAPE($,$,(#134));
#136=IFCCARTESIANPOINT((0.,0.,0.));
#137=IFCAXIS2PLACEMENT3D(#136,$,$);
#138=IFCLOCALPLACEMENT($,#137);
#139=IFCWALL('0WTeWdIx1ESQTNVO3AMM3V',$,'W9',$,$,#138,#135,$,$);
#140=IFCCARTESIANPOINT((1.5,0.10000000000000001));
#141=IFCAXIS2PLACEMENT2D(#140,$);
#142=IFCRECTANGLEPROFILEDEF(.AREA.,$,#141,3.,0.20000000000000001);
#143=IFCCARTESIANPOINT((1.,-6.0999999999999996,0.));
#144=IFCAXIS2PLACEMENT3D(#143,$,$);
#145=IFCDIRECTION((0.,0.,1.));
#146=IFCEXTRUDEDAREASOLID(#142,#144,#145,3.);
#147=IFCSHAPEREPRESENTATION(#4,'Body','SweptSolid',(#146));
#148=IFCPRODUCTDEFINITIONSHAPE($,$,(#147));
#149=IFCCARTESIANPOINT((0.,0.,0.));
#150=IFCAXIS2PLACEMENT3D(#149,$,$);
#151=IFCLOCALPLACEMENT($,#150);
#152=IFCWALL('0b6lDv_xr3T8RUAM_w3$OK',$,'W10',$,$,#151,#148,$,$);
#153=IFCCARTESIANPOINT((0.59999999999999998,0.10000000000000001));
#154=IFCAXIS2PLACEMENT2D(#153,$);
#155=IFCRECTANGLEPROFILEDEF(.AREA.,$,#154,1.2,0.20000000000000001);
#156=IFCCARTESIANPOINT((1.,-3.1000000000000001,0.));
#157=IFCAXIS2PLACEMENT3D(#156,$,$);
#158=IFCDIRECTION((0.,0.,1.));
#159=IFCEXTRUDEDAREASOLID(#155,#157,#158,3.);
#160=IFCSHAPEREPRESENTATION(#4,'Body','SweptSolid',(#159));
#161=IFCPRODUCTDEFINITIONSHAPE($,$,(#160));
#162=IFCCARTESIANPOINT((0.,0.,0.));
#163=IFCAXIS2PLACEMENT3D(#162,$,$);
#164=IFCLOCALPLACEMENT($,#163);
#165=IFCWALL('1btYZ7ROj9s9Ui9vyvmwrK',$,'W11a',$,$,#164,#161,$,$);
#166=IFCCARTESIANPOINT((0.82499999999999996,0.10000000000000001));
#167=IFCAXIS2PLACEMENT2D(#166,$);
#168=IFCRECTANGLEPROFILEDEF(.AREA.,$,#167,1.6499999999999999,0.20000000000000001);
#169=IFCCARTESIANPOINT((2.3500000000000001,-3.1000000000000001,0.));
#170=IFCAXIS2PLACEMENT3D(#169,$,$);
#171=IFCDIRECTION((0.,0.,1.));
#172=IFCEXTRUDEDAREASOLID(#168,#170,#171,3.);
#173=IFCSHAPEREPRESENTATION(#4,'Body','SweptSolid',(#172));
#174=IFCPRODUCTDEFINITIONSHAPE($,$,(#173));
#175=IFCCARTESIANPOINT((0.,0.,0.));
#176=IFCAXIS2PLACEMENT3D(#175,$,$);
#177=IFCLOCALPLACEMENT($,#176);
#178=IFCWALL('113Eml5gDFf9IdIKhvpa8I',$,'W11b',$,$,#177,#174,$,$);
#179=IFCCARTESIANPOINT((0.10000000000000001,0.45000000000000001));
#180=IFCAXIS2PLACEMENT2D(#179,$);
#181=IFCRECTANGLEPROFILEDEF(.AREA.,$,#180,0.20000000000000001,0.90000000000000002);
#182=IFCCARTESIANPOINT((4.9000000000000004,3.,0.));
#183=IFCAXIS2PLACEMENT3D(#182,$,$);
#184=IFCDIRECTION((0.,0.,1.));
#185=IFCEXTRUDEDAREASOLID(#181,#183,#184,2.1000000000000001);
#186=IFCSHAPEREPRESENTATION(#4,'Body','SweptSolid',(#185));
#187=IFCPRODUCTDEFINITIONSHAPE($,$,(#186));
#188=IFCCARTESIANPOINT((0.,0.,0.));
#189=IFCAXIS2PLACEMENT3D(#188,$,$);
#190=IFCLOCALPLACEMENT($,#189);
#191=IFCOPENINGELEMENT('1kH9SGlKb6YAXcyCSyYxuL',$,'Opening-D1-\X2\969458994E0A768495E8\X0\',$,$,#190,#187,$,$);
#192=IFCRELVOIDSELEMENT('3LApwy2kTEhw2Iye30hzIn',$,$,$,#87,#191);
#193=IFCCARTESIANPOINT((0.10000000000000001,0.45000000000000001));
#194=IFCAXIS2PLACEMENT2D(#193,$);
#195=IFCRECTANGLEPROFILEDEF(.AREA.,$,#194,0.20000000000000001,0.90000000000000002);
#196=IFCCARTESIANPOINT((4.9000000000000004,3.,0.));
#197=IFCAXIS2PLACEMENT3D(#196,$,$);
#198=IFCDIRECTION((0.,0.,1.));
#199=IFCEXTRUDEDAREASOLID(#195,#197,#198,2.1000000000000001);
#200=IFCSHAPEREPRESENTATION(#4,'Body','SweptSolid',(#199));
#201=IFCPRODUCTDEFINITIONSHAPE($,$,(#200));
#202=IFCCARTESIANPOINT((0.,0.,0.));
#203=IFCAXIS2PLACEMENT3D(#202,$,$);
#204=IFCLOCALPLACEMENT($,#203);
#205=IFCDOOR('01EWGJ5yP77x0iVKPACOGV',$,'D1-\X2\969458994E0A768495E8\X0\',$,$,#204,#201,$,$,$,$,$,$);
#206=IFCRELFILLSELEMENT('1iYAi5P7TD9AHzhw0wlYF3',$,$,$,#191,#205);
#207=IFCCARTESIANPOINT((0.10000000000000001,0.45000000000000001));
#208=IFCAXIS2PLACEMENT2D(#207,$);
#209=IFCRECTANGLEPROFILEDEF(.AREA.,$,#208,0.20000000000000001,0.90000000000000002);
#210=IFCCARTESIANPOINT((4.9000000000000004,3.02,0.));
#211=IFCAXIS2PLACEMENT3D(#210,$,$);
#212=IFCDIRECTION((0.,0.,1.));
#213=IFCEXTRUDEDAREASOLID(#209,#211,#212,2.1000000000000001);
#214=IFCSHAPEREPRESENTATION(#4,'Body','SweptSolid',(#213));
#215=IFCPRODUCTDEFINITIONSHAPE($,$,(#214));
#216=IFCCARTESIANPOINT((0.,0.,0.));
#217=IFCAXIS2PLACEMENT3D(#216,$,$);
#218=IFCLOCALPLACEMENT($,#217);
#219=IFCOPENINGELEMENT('0eGj_q1dD8LP_F$8WDKq6L',$,'Opening-D1b-\X2\91CD590D768495E8\X0\',$,$,#218,#215,$,$);
#220=IFCRELVOIDSELEMENT('3AtwSzkIbFDAV6zCEL5y43',$,$,$,#87,#219);
#221=IFCCARTESIANPOINT((0.10000000000000001,0.45000000000000001));
#222=IFCAXIS2PLACEMENT2D(#221,$);
#223=IFCRECTANGLEPROFILEDEF(.AREA.,$,#222,0.20000000000000001,0.90000000000000002);
#224=IFCCARTESIANPOINT((4.9000000000000004,3.02,0.));
#225=IFCAXIS2PLACEMENT3D(#224,$,$);
#226=IFCDIRECTION((0.,0.,1.));
#227=IFCEXTRUDEDAREASOLID(#223,#225,#226,2.1000000000000001);
#228=IFCSHAPEREPRESENTATION(#4,'Body','SweptSolid',(#227));
#229=IFCPRODUCTDEFINITIONSHAPE($,$,(#228));
#230=IFCCARTESIANPOINT((0.,0.,0.));
#231=IFCAXIS2PLACEMENT3D(#230,$,$);
#232=IFCLOCALPLACEMENT($,#231);
#233=IFCDOOR('1gbNjtpfb0LggjKO0Gbn3p',$,'D1b-\X2\91CD590D768495E8\X0\',$,$,#232,#229,$,$,$,$,$,$);
#234=IFCRELFILLSELEMENT('3S2$jiQsb8H9tjuT$zq4a0',$,$,$,#219,#233);
#235=IFCCARTESIANPOINT((0.45000000000000001,0.10000000000000001));
#236=IFCAXIS2PLACEMENT2D(#235,$);
#237=IFCRECTANGLEPROFILEDEF(.AREA.,$,#236,0.90000000000000002,0.20000000000000001);
#238=IFCCARTESIANPOINT((2.,-0.10000000000000001,0.));
#239=IFCAXIS2PLACEMENT3D(#238,$,$);
#240=IFCDIRECTION((0.,0.,1.));
#241=IFCEXTRUDEDAREASOLID(#237,#239,#240,2.1000000000000001);
#242=IFCSHAPEREPRESENTATION(#4,'Body','SweptSolid',(#241));
#243=IFCPRODUCTDEFINITIONSHAPE($,$,(#242));
#244=IFCCARTESIANPOINT((0.,0.,0.));
#245=IFCAXIS2PLACEMENT3D(#244,$,$);
#246=IFCLOCALPLACEMENT($,#245);
#247=IFCOPENINGELEMENT('1k3_s5ycf77AWn1xjvPUS6',$,'Opening-D3-\X2\591695E8\X0\',$,$,#246,#243,$,$);
#248=IFCRELVOIDSELEMENT('3wmVZHM$LByg2Ug0kBZThR',$,$,$,#35,#247);
#249=IFCCARTESIANPOINT((0.45000000000000001,0.10000000000000001));
#250=IFCAXIS2PLACEMENT2D(#249,$);
#251=IFCRECTANGLEPROFILEDEF(.AREA.,$,#250,0.90000000000000002,0.20000000000000001);
#252=IFCCARTESIANPOINT((2.,-0.10000000000000001,0.));
#253=IFCAXIS2PLACEMENT3D(#252,$,$);
#254=IFCDIRECTION((0.,0.,1.));
#255=IFCEXTRUDEDAREASOLID(#251,#253,#254,2.1000000000000001);
#256=IFCSHAPEREPRESENTATION(#4,'Body','SweptSolid',(#255));
#257=IFCPRODUCTDEFINITIONSHAPE($,$,(#256));
#258=IFCCARTESIANPOINT((0.,0.,0.));
#259=IFCAXIS2PLACEMENT3D(#258,$,$);
#260=IFCLOCALPLACEMENT($,#259);
#261=IFCDOOR('1JPJdaHIv1vfuFCDxqpikM',$,'D3-\X2\591695E8\X0\',$,$,#260,#257,$,$,$,$,$,$);
#262=IFCRELFILLSELEMENT('1P0Q0mUQT2fvr8IMDL82Db',$,$,$,#247,#261);
#263=IFCCARTESIANPOINT((0.59999999999999998,0.10000000000000001));
#264=IFCAXIS2PLACEMENT2D(#263,$);
#265=IFCRECTANGLEPROFILEDEF(.AREA.,$,#264,1.2,0.20000000000000001);
#266=IFCCARTESIANPOINT((6.4000000000000004,-0.10000000000000001,0.90000000000000002));
#267=IFCAXIS2PLACEMENT3D(#266,$,$);
#268=IFCDIRECTION((0.,0.,1.));
#269=IFCEXTRUDEDAREASOLID(#265,#267,#268,1.2);
#270=IFCSHAPEREPRESENTATION(#4,'Body','SweptSolid',(#269));
#271=IFCPRODUCTDEFINITIONSHAPE($,$,(#270));
#272=IFCCARTESIANPOINT((0.,0.,0.));
#273=IFCAXIS2PLACEMENT3D(#272,$,$);
#274=IFCLOCALPLACEMENT($,#273);
#275=IFCOPENINGELEMENT('0eXK7RuCf32AYzwyI2GR7T',$,'Opening-WN1-\X2\59167A97\X0\',$,$,#274,#271,$,$);
#276=IFCRELVOIDSELEMENT('1AfVwdZqr5XQ9rpsqGYzei',$,$,$,#35,#275);
#277=IFCCARTESIANPOINT((0.59999999999999998,0.10000000000000001));
#278=IFCAXIS2PLACEMENT2D(#277,$);
#279=IFCRECTANGLEPROFILEDEF(.AREA.,$,#278,1.2,0.20000000000000001);
#280=IFCCARTESIANPOINT((6.4000000000000004,-0.10000000000000001,0.90000000000000002));
#281=IFCAXIS2PLACEMENT3D(#280,$,$);
#282=IFCDIRECTION((0.,0.,1.));
#283=IFCEXTRUDEDAREASOLID(#279,#281,#282,1.2);
#284=IFCSHAPEREPRESENTATION(#4,'Body','SweptSolid',(#283));
#285=IFCPRODUCTDEFINITIONSHAPE($,$,(#284));
#286=IFCCARTESIANPOINT((0.,0.,0.));
#287=IFCAXIS2PLACEMENT3D(#286,$,$);
#288=IFCLOCALPLACEMENT($,#287);
#289=IFCWINDOW('3n4EGOyCP4K9tyFqctMdix',$,'WN1-\X2\59167A97\X0\',$,$,#288,#285,$,$,$,$,$,$);
#290=IFCRELFILLSELEMENT('32ggUxaJnASxluw66CrouT',$,$,$,#275,#289);
#291=IFCCARTESIANPOINT((0.,0.));
#292=IFCCARTESIANPOINT((5.,0.));
#293=IFCCARTESIANPOINT((5.,8.));
#294=IFCCARTESIANPOINT((0.,8.));
#295=IFCCARTESIANPOINT((0.,0.));
#296=IFCPOLYLINE((#291,#292,#293,#294,#295));
#297=IFCARBITRARYCLOSEDPROFILEDEF(.AREA.,$,#296);
#298=IFCCARTESIANPOINT((0.,0.,0.));
#299=IFCAXIS2PLACEMENT3D(#298,$,$);
#300=IFCDIRECTION((0.,0.,1.));
#301=IFCEXTRUDEDAREASOLID(#297,#299,#300,2.7999999999999998);
#302=IFCSHAPEREPRESENTATION(#4,'Body','SweptSolid',(#301));
#303=IFCPRODUCTDEFINITIONSHAPE($,$,(#302));
#304=IFCCARTESIANPOINT((0.,0.,0.));
#305=IFCAXIS2PLACEMENT3D(#304,$,$);
#306=IFCLOCALPLACEMENT($,#305);
#307=IFCSPACE('0YSthMI_L9Cu3o6m$ognxU',$,'A-101',$,$,#306,#303,'\X2\529E516C5BA4\X0\A',$,$,$);
#308=IFCRELAGGREGATES('1ffew9qnX0r8FvKKK37$G8',$,$,$,#19,(#307));
#309=IFCQUANTITYAREA('NetFloorArea',$,$,40.,$);
#310=IFCELEMENTQUANTITY('2JLZ4WAsvBIedwY7WPpAP_',$,'Qto_SpaceBaseQuantities',$,'BaseQuantities',(#309));
#311=IFCRELDEFINESBYPROPERTIES('3ZJ6IOPY1BdgYtkz81so9X',$,$,$,(#307),#310);
#312=IFCCARTESIANPOINT((5.,0.));
#313=IFCCARTESIANPOINT((10.,0.));
#314=IFCCARTESIANPOINT((10.,8.));
#315=IFCCARTESIANPOINT((5.,8.));
#316=IFCCARTESIANPOINT((5.,0.));
#317=IFCPOLYLINE((#312,#313,#314,#315,#316));
#318=IFCARBITRARYCLOSEDPROFILEDEF(.AREA.,$,#317);
#319=IFCCARTESIANPOINT((0.,0.,0.));
#320=IFCAXIS2PLACEMENT3D(#319,$,$);
#321=IFCDIRECTION((0.,0.,1.));
#322=IFCEXTRUDEDAREASOLID(#318,#320,#321,2.7999999999999998);
#323=IFCSHAPEREPRESENTATION(#4,'Body','SweptSolid',(#322));
#324=IFCPRODUCTDEFINITIONSHAPE($,$,(#323));
#325=IFCCARTESIANPOINT((0.,0.,0.));
#326=IFCAXIS2PLACEMENT3D(#325,$,$);
#327=IFCLOCALPLACEMENT($,#326);
#328=IFCSPACE('1YUzs1H1zAsPoVjhAXS8jj',$,'B-102',$,$,#327,#324,'\X2\529E516C5BA4\X0\B',$,$,$);
#329=IFCRELAGGREGATES('09QgYPQWLDlOzSwJNlBAqi',$,$,$,#19,(#328));
#330=IFCQUANTITYAREA('NetFloorArea',$,$,38.5,$);
#331=IFCELEMENTQUANTITY('0wPZuiDOT1cPlH$HaTSXNl',$,'Qto_SpaceBaseQuantities',$,'BaseQuantities',(#330));
#332=IFCRELDEFINESBYPROPERTIES('0nIy2msHz6QBz5B4HnC7mi',$,$,$,(#328),#331);
#333=IFCCARTESIANPOINT((1.,-6.));
#334=IFCCARTESIANPOINT((4.,-6.));
#335=IFCCARTESIANPOINT((4.,-3.));
#336=IFCCARTESIANPOINT((1.,-3.));
#337=IFCCARTESIANPOINT((1.,-6.));
#338=IFCPOLYLINE((#333,#334,#335,#336,#337));
#339=IFCARBITRARYCLOSEDPROFILEDEF(.AREA.,$,#338);
#340=IFCCARTESIANPOINT((0.,0.,0.));
#341=IFCAXIS2PLACEMENT3D(#340,$,$);
#342=IFCDIRECTION((0.,0.,1.));
#343=IFCEXTRUDEDAREASOLID(#339,#341,#342,2.7999999999999998);
#344=IFCSHAPEREPRESENTATION(#4,'Body','SweptSolid',(#343));
#345=IFCPRODUCTDEFINITIONSHAPE($,$,(#344));
#346=IFCCARTESIANPOINT((0.,0.,0.));
#347=IFCAXIS2PLACEMENT3D(#346,$,$);
#348=IFCLOCALPLACEMENT($,#347);
#349=IFCSPACE('3iHXentXrABw4fl47PrGfI',$,'C-103',$,$,#348,#345,'\X2\8BBE590795F4\X0\',$,$,$);
#350=IFCRELAGGREGATES('04JWLdBpj6QAgK7Lmc5VQN',$,$,$,#19,(#349));
#351=IFCRELCONTAINEDINSPATIALSTRUCTURE('3WYW0S4zHBjRtp9FrFLOK9',$,$,$,(#35,#48,#61,#74,#87,#100,#113,#126,#139,#152,#165,#178,#205,#233,#261,#289),#19);
ENDSEC;
END-ISO-10303-21;
